<?xml version="1.0" encoding="UTF-8" standalone="no"?>
<svg width="46px" height="53px" viewBox="0 0 46 53" version="1.1" xmlns="http://www.w3.org/2000/svg" xmlns:xlink="http://www.w3.org/1999/xlink">
    <!-- Generator: Sketch 45.2 (43514) - http://www.bohemiancoding.com/sketch -->
    <title>Group 3 Copy</title>
    <desc>Created with Sketch.</desc>
    <defs></defs>
    <g id="Page-1" stroke="none" stroke-width="1" fill="none" fill-rule="evenodd">
        <g id="Group-3-Copy">
            <path d="M16.5731715,45.0900572 C6.99834284,42.30916 0,33.4718553 0,23 C0,10.2974508 10.2974508,0 23,0 C35.7025492,0 46,10.2974508 46,23 C46,33.4718553 39.0016572,42.30916 29.4268285,45.0900572 L23,53 L16.5731715,45.0900572 Z" id="Oval-Copy" fill="#E64500"></path>
            <path d="M16.7436538,16 C16.2757639,16 15.8704234,16.3244339 15.7679375,16.7809617 L13.5230396,26.7809617 C13.5068999,26.8528568 13.4987558,26.9263155 13.4987558,27 C13.4987558,27.5522847 13.9464711,28 14.4987558,28 L31.5012442,28 C31.5749286,28 31.6483874,27.991856 31.7202825,27.9757163 C32.2591557,27.8547447 32.5979319,27.3198349 32.4769604,26.7809617 L30.2320625,16.7809617 C30.1295766,16.3244339 29.7242361,16 29.2563462,16 L16.7436538,16 Z" id="Rectangle-2" stroke="#FFFFFF" stroke-width="2"></path>
        </g>
    </g>
</svg>