<?xml version="1.0" encoding="UTF-8" standalone="no"?>
<svg width="23px" height="24px" viewBox="0 0 23 24" version="1.1" xmlns="http://www.w3.org/2000/svg" xmlns:xlink="http://www.w3.org/1999/xlink">
    <!-- Generator: Sketch 45.2 (43514) - http://www.bohemiancoding.com/sketch -->
    <title>Fill 10 Copy 2</title>
    <desc>Created with Sketch.</desc>
    <defs></defs>
    <g id="Page-1" stroke="none" stroke-width="1" fill="none" fill-rule="evenodd" opacity="0.600000024">
        <g id="1360x768_Карта-терминалов_Авторизованная" transform="translate(-724.000000, -248.000000)" fill="#000000">
            <path d="M746.451539,271.252187 C744.380175,268.64391 742.605297,267.928153 740.966223,267.483537 C740.735624,267.421045 740.507713,267.363334 740.28182,267.306988 C740.252238,267.299817 740.223329,267.292304 740.193748,267.285133 C738.814856,266.941256 737.517984,266.60694 736.199936,265.247822 C736.181783,265.229723 736.163631,265.211283 736.145479,265.19216 C735.785461,264.813109 735.423762,264.3562 735.058366,263.801625 C734.959874,263.652395 734.861718,263.49736 734.763225,263.333446 C734.483547,262.870049 734.505733,264.018811 734.612293,265.401491 C734.613974,265.424029 734.615991,265.446909 734.617672,265.469447 C734.530272,265.472179 734.442201,265.475252 734.353457,265.475252 C732.499583,265.475252 730.94959,264.815841 729.614733,263.459796 C728.279541,262.10341 727.630769,260.491251 727.630769,258.530091 C727.630769,256.565517 728.261389,254.946186 729.560277,253.580579 C730.85177,252.22112 732.419915,251.560684 734.353457,251.560684 C736.241618,251.560684 737.812117,252.220096 739.156385,253.577165 C740.498637,254.933551 741.151443,256.566541 741.151443,258.569021 C741.151443,258.826502 741.14035,259.077153 741.118836,259.321999 C741.09665,259.320633 741.074464,259.319267 741.052278,259.317901 C739.903313,259.243799 738.904272,259.259507 738.834689,259.329171 C738.667621,259.497524 739.129157,259.473278 739.33589,259.529965 C739.673386,259.622508 739.987015,259.734515 740.278122,259.864964 C740.505696,259.967068 740.719488,260.080783 740.919498,260.205767 C740.939667,260.218402 740.960173,260.230696 740.980006,260.244014 C742.200907,261.0308 742.893378,262.249908 743.117255,263.854897 C743.125995,263.919096 743.164316,264.006517 743.232891,263.891436 C743.872587,262.800385 744.216469,261.950083 744.401352,261.35009 L744.409756,261.354871 C744.440346,261.241839 744.468919,261.127782 744.495811,261.014067 C744.531443,260.871325 744.557327,260.748732 744.575143,260.648335 C744.711956,259.952726 744.781876,259.237311 744.781876,258.505504 C744.781876,256.608544 744.314962,254.825641 743.392899,253.207334 C742.469828,251.586637 741.184722,250.299573 739.57254,249.380632 C737.965065,248.464422 736.1838,248 734.278159,248 C732.452858,248 730.723696,248.469886 729.139416,249.397706 C727.554127,250.325526 726.287509,251.621469 725.37385,253.249679 C724.461872,254.874815 724,256.66045 724,258.556044 C724,260.453345 724.462544,262.231126 725.375867,263.839871 C726.290198,265.452373 727.571943,266.736022 729.18446,267.654963 C730.79059,268.571173 732.550678,269.035595 734.415981,269.035595 C734.812303,269.035595 735.202575,269.013057 735.588476,268.971054 C735.68596,268.963541 735.784116,268.955687 735.881264,268.947833 C736.103796,268.930076 736.323975,268.910611 736.542474,268.890805 C737.635301,268.792798 738.681404,268.690352 739.733557,268.735087 C741.715504,268.819434 743.72031,269.426598 746.103286,271.571136 C746.341953,271.785931 746.661969,271.517181 746.451539,271.252187 M739.645015,264.571541 C739.437273,264.571541 739.264492,264.645302 739.157932,264.778482 C738.884977,265.120311 739.007336,265.721669 739.425508,266.092524 C739.607702,266.254389 739.870236,266.35103 740.1284,266.35103 C740.390934,266.35103 740.610105,266.250974 740.745238,266.069644 C740.988275,265.738402 740.8481,265.269541 740.388581,264.874782 C740.161679,264.679451 739.897128,264.571541 739.645015,264.571541 M741.934944,262.854921 C741.731909,262.794477 741.579968,262.839212 741.505007,262.97888 C741.391724,263.189236 741.475089,263.60585 741.704008,263.968851 C741.936289,264.336291 742.132937,264.523084 742.28992,264.523084 C742.34404,264.523084 742.39211,264.499863 742.429086,264.456153 C742.516822,264.354731 742.545394,264.141985 742.50909,263.872552 C742.471777,263.597655 742.305719,263.031469 741.934944,262.854921" id="Fill-10-Copy-2"></path>
        </g>
    </g>
</svg>