<?xml version="1.0" encoding="UTF-8" standalone="no"?>
<svg width="46px" height="53px" viewBox="0 0 46 53" version="1.1" xmlns="http://www.w3.org/2000/svg" xmlns:xlink="http://www.w3.org/1999/xlink">
    <!-- Generator: Sketch 45.2 (43514) - http://www.bohemiancoding.com/sketch -->
    <title>Group</title>
    <desc>Created with Sketch.</desc>
    <defs>
        <linearGradient x1="50%" y1="0%" x2="50%" y2="100%" id="linearGradient-1">
            <stop stop-color="#FF8C00" offset="0%"></stop>
            <stop stop-color="#FF6900" offset="100%"></stop>
        </linearGradient>
        <path d="M16.5731715,45.0900572 C6.99834284,42.30916 0,33.4718553 0,23 C0,10.2974508 10.2974508,0 23,0 C35.7025492,0 46,10.2974508 46,23 C46,33.4718553 39.0016572,42.30916 29.4268285,45.0900572 L23,53 L16.5731715,45.0900572 Z" id="path-2"></path>
    </defs>
    <g id="Page-1" stroke="none" stroke-width="1" fill="none" fill-rule="evenodd">
        <g id="Group">
            <g id="Group-7">
                <g id="Oval-Copy">
                    <use fill="#FF8C00" xlink:href="#path-2"></use>
                    <use fill="url(#linearGradient-1)" xlink:href="#path-2"></use>
                </g>
                <path d="M34.4545787,34.2196741 C32.4751938,31.7272173 30.7791289,31.0432439 29.2128387,30.6183711 C28.9924787,30.5586539 28.7746886,30.5035053 28.5588258,30.449662 C28.530558,30.4428092 28.5029327,30.4356301 28.474665,30.4287773 C27.1570024,30.1001698 25.9177186,29.7806994 24.6581977,28.481933 C24.6408516,28.4646378 24.6235055,28.4470164 24.6061593,28.4287423 C24.262128,28.0665235 23.9164905,27.6299031 23.5673196,27.0999542 C23.4732008,26.9573509 23.3794033,26.8092002 23.2852846,26.652565 C23.0180258,26.2097444 23.0392267,27.3074957 23.1410548,28.6287784 C23.1426609,28.6503157 23.1445883,28.6721794 23.1461944,28.6937167 C23.062676,28.6963273 22.9785152,28.6992642 22.893712,28.6992642 C21.1221593,28.6992642 19.6409936,28.0691341 18.3654114,26.7733046 C17.089508,25.4771488 16.4695449,23.9365769 16.4695449,22.0625027 C16.4695449,20.1851652 17.0721619,18.6377405 18.3133731,17.332774 C19.5475173,16.0336813 21.0460292,15.4025722 22.893712,15.4025722 C24.6980295,15.4025722 26.19879,16.0327023 27.4833664,17.3295108 C28.7660155,18.6256666 29.3898333,20.1861442 29.3898333,22.0997035 C29.3898333,22.3457512 29.3792329,22.5852725 29.3586746,22.8192462 C29.3374738,22.8179409 29.3162729,22.8166356 29.2950721,22.8153303 C28.1971271,22.7445182 27.2424481,22.7595291 27.1759547,22.826099 C27.0163061,22.9869763 27.4573473,22.9638074 27.6549003,23.017977 C27.9774096,23.1064106 28.277112,23.2134447 28.5552923,23.3381001 C28.7727612,23.4356708 28.97706,23.5443364 29.1681885,23.6637707 C29.187462,23.6758447 29.2070566,23.6875923 29.2260089,23.7003189 C30.392696,24.4521676 31.0544183,25.6171415 31.2683537,27.1508606 C31.2767056,27.2122093 31.3133251,27.2957481 31.3788549,27.1857772 C31.990145,26.1431745 32.3187576,25.3306297 32.495431,24.7572798 L32.5034616,24.7618483 C32.532693,24.6538353 32.5599971,24.5448434 32.585695,24.4361777 C32.6197448,24.2997746 32.6444791,24.1826246 32.661504,24.0866856 C32.7922423,23.4219652 32.859057,22.7383181 32.859057,22.0390074 C32.859057,20.2262819 32.4128763,18.5225484 31.5317577,16.9761027 C30.6496755,15.4273727 29.4216346,14.1974605 27.8810423,13.3193248 C26.3449471,12.4437996 24.6427789,12 22.8217577,12 C21.0775091,12 19.4251308,12.4490207 17.9112001,13.3356409 C16.3963057,14.2222611 15.1859321,15.4606577 14.3128442,17.0165668 C13.4413623,18.569539 13,20.2758831 13,22.0873032 C13,23.900355 13.4420048,25.5991937 14.3147715,27.1365024 C15.1885019,28.6774006 16.4133306,29.9040495 17.9542442,30.7821853 C19.4890544,31.6577105 21.1709855,32.1015101 22.9534597,32.1015101 C23.3321833,32.1015101 23.7051249,32.0799727 24.0738905,32.039835 C24.1670456,32.0326559 24.2608431,32.0251504 24.353677,32.017645 C24.5663275,32.0006762 24.7767295,31.9820758 24.9855254,31.963149 C26.029826,31.8694943 27.0294763,31.7715973 28.0349088,31.8143456 C29.9288479,31.8949475 31.8446303,32.4751502 34.1217902,34.52446 C34.3498595,34.7297173 34.6556652,34.4729009 34.4545787,34.2196741 M27.9502982,27.8356825 C27.7517816,27.8356825 27.5866722,27.9061683 27.4848441,28.0334343 C27.2240098,28.3600839 27.3409355,28.9347391 27.7405387,29.2891261 C27.9146423,29.4438033 28.1655186,29.5361527 28.412219,29.5361527 C28.6630952,29.5361527 28.8725335,29.44054 29.0016658,29.2672624 C29.233911,28.9507289 29.0999604,28.5026871 28.6608467,28.1254575 C28.4440202,27.9388006 28.1912166,27.8356825 27.9502982,27.8356825 M30.1385432,26.1952883 C29.9445237,26.1375291 29.7993302,26.1802774 29.7276972,26.3137436 C29.6194446,26.5147587 29.6991082,26.9128731 29.917862,27.2597546 C30.1398281,27.6108784 30.3277444,27.7893772 30.4777562,27.7893772 C30.5294733,27.7893772 30.5754084,27.7671872 30.6107431,27.7254179 C30.6945827,27.6284999 30.7218867,27.4252005 30.6871945,27.1677315 C30.6515386,26.9050413 30.4928537,26.3639974 30.1385432,26.1952883" id="Fill-10-Copy" fill="#FFFFFF"></path>
            </g>
        </g>
    </g>
</svg>